<svg xmlns="http://www.w3.org/2000/svg" xmlns:xlink="http://www.w3.org/1999/xlink" version="1.1" id="Layer_1" x="0px" y="0px" enable-background="new 0 0 1024 1024" xml:space="preserve" viewBox="349.58 291.59 326.89 328.89">
<path fill="#000000" opacity="1.000000" stroke="none" d=" M408.000061,291.674622   C418.499908,291.675354 428.501953,291.796570 438.498444,291.614746   C442.176849,291.547791 443.408447,292.810822 443.401398,296.502686   C443.309601,344.668335 443.317566,392.834259 443.381531,441.000000   C443.385864,444.259857 442.621124,445.852386 438.947357,445.835846   C418.635162,445.744324 398.321838,445.795074 378.009430,445.901581   C370.018738,445.943451 362.036682,444.835388 354.039215,445.814514   C349.338104,446.390106 349.637146,443.126404 349.637756,440.001709   C349.645813,400.335724 349.622833,360.669769 349.614258,321.003784   C349.612488,312.837280 349.777466,304.667511 349.587158,296.505737   C349.500824,292.802460 350.834259,291.595306 354.501282,291.623108   C372.166656,291.757233 389.833649,291.678314 408.000061,291.674622  z"/>
<path fill="#000000" opacity="1.000000" stroke="none" d=" M582.647705,435.960754   C582.648560,389.839111 582.646851,344.210205 582.653320,298.581268   C582.654297,291.692261 582.671875,291.672852 589.414612,291.671478   C616.225769,291.665924 643.037598,291.769012 669.847473,291.587067   C674.599060,291.554840 676.493591,292.489655 676.468262,297.848633   C676.244812,345.141815 676.270081,392.436646 676.429749,439.730316   C676.445984,444.539490 675.028931,446.036774 670.232300,445.975098   C645.271118,445.653778 620.306274,445.622681 595.342651,445.497894   C594.511597,445.493744 593.678894,445.550049 592.849182,445.609528   C582.647583,446.340515 582.647705,446.342072 582.647705,435.960754  z"/>
<path fill="#000000" opacity="1.000000" stroke="none" d=" M443.349030,567.000122   C443.346771,583.327026 443.233459,599.155212 443.417450,614.979980   C443.465271,619.092529 442.149597,620.436462 438.003540,620.413574   C410.182343,620.260010 382.359894,620.293457 354.538025,620.356323   C351.386810,620.363403 349.601959,619.789917 349.608673,616.031067   C349.694672,567.884277 349.667664,519.737244 349.687805,471.590240   C349.688141,470.791718 349.919556,469.993286 350.095764,468.855225   C380.994751,468.855225 411.740356,468.855225 443.348785,468.855225   C443.348785,501.346497 443.348785,533.923279 443.349030,567.000122  z"/>
<path fill="#000000" opacity="1.000000" stroke="none" d=" M676.336914,502.000061   C676.337280,541.485229 676.337280,580.470337 676.337280,619.236206   C674.291138,621.004150 672.204041,620.308838 670.294617,620.313354   C642.629822,620.378845 614.964600,620.326050 587.300415,620.478821   C583.830322,620.497925 582.596680,619.531799 582.602600,616.006714   C582.682068,568.342407 582.678101,520.677979 582.619202,473.013611   C582.615295,469.843414 583.682190,468.542786 586.935791,468.549988   C616.420166,468.615326 645.904724,468.588257 676.336609,468.588257   C676.336609,479.676666 676.336609,490.588348 676.336914,502.000061  z"/>
<path fill="#000000" opacity="1.000000" stroke="none" d=" M519.000122,525.678589   C531.156372,525.681458 542.813904,525.782654 554.468140,525.629578   C558.095520,525.581909 559.419373,526.771912 559.404236,530.497986   C559.289551,558.805603 559.293396,587.113953 559.398193,615.421570   C559.411499,619.012207 558.393066,620.418884 554.598145,620.403687   C526.623718,620.291260 498.648376,620.313171 470.673798,620.418945   C466.847809,620.433411 465.842896,618.736328 465.853882,615.264404   C465.943024,587.123535 465.992828,558.982056 465.883331,530.841431   C465.868103,526.934814 467.120605,525.584106 471.042969,525.622437   C486.860657,525.777161 502.680817,525.681885 519.000122,525.678589  z"/>
<path fill="#000000" opacity="1.000000" stroke="none" d=" M465.910156,344.000000   C465.910248,328.004364 466.038422,312.506958 465.827332,297.014221   C465.770477,292.842560 467.121552,291.579926 471.238556,291.601135   C498.896790,291.743805 526.556396,291.731903 554.214844,291.610901   C558.058777,291.594086 559.439026,292.728455 559.418579,296.720215   C559.276245,324.545105 559.289978,352.371246 559.402344,380.196411   C559.417603,383.973053 558.408936,385.472504 554.347290,385.451019   C526.522461,385.303772 498.696320,385.327545 470.871094,385.435883   C467.175812,385.450256 465.861359,384.128479 465.897064,380.489014   C466.014771,368.493805 465.922485,356.496490 465.910156,344.000000  z"/>

</svg>